<mxfile host="app.diagrams.net" modified="2021-07-14T08:54:40.619Z" agent="5.0 (Windows)" etag="-jJDPURvUJdeZbOwNiJj" version="14.8.6" type="github">
  <diagram id="C5RBs43oDa-KdzZeNtuy" name="Page-1">
    <mxGraphModel dx="1422" dy="790" grid="0" gridSize="10" guides="1" tooltips="1" connect="1" arrows="1" fold="1" page="1" pageScale="1" pageWidth="1200" pageHeight="1920" math="0" shadow="0">
      <root>
        <mxCell id="WIyWlLk6GJQsqaUBKTNV-0" />
        <mxCell id="WIyWlLk6GJQsqaUBKTNV-1" parent="WIyWlLk6GJQsqaUBKTNV-0" />
        <mxCell id="Dr4ZRQpBwiBQjPsfkBms-7" value="" style="edgeStyle=orthogonalEdgeStyle;rounded=0;orthogonalLoop=1;jettySize=auto;html=1;" edge="1" parent="WIyWlLk6GJQsqaUBKTNV-1" source="Dr4ZRQpBwiBQjPsfkBms-5" target="Dr4ZRQpBwiBQjPsfkBms-6">
          <mxGeometry relative="1" as="geometry" />
        </mxCell>
        <mxCell id="Dr4ZRQpBwiBQjPsfkBms-5" value="申购" style="rounded=0;whiteSpace=wrap;html=1;" vertex="1" parent="WIyWlLk6GJQsqaUBKTNV-1">
          <mxGeometry x="60" y="260" width="120" height="60" as="geometry" />
        </mxCell>
        <mxCell id="Dr4ZRQpBwiBQjPsfkBms-9" value="" style="edgeStyle=orthogonalEdgeStyle;rounded=0;orthogonalLoop=1;jettySize=auto;html=1;" edge="1" parent="WIyWlLk6GJQsqaUBKTNV-1" source="Dr4ZRQpBwiBQjPsfkBms-6" target="Dr4ZRQpBwiBQjPsfkBms-8">
          <mxGeometry relative="1" as="geometry" />
        </mxCell>
        <mxCell id="Dr4ZRQpBwiBQjPsfkBms-6" value="" style="whiteSpace=wrap;html=1;rounded=0;" vertex="1" parent="WIyWlLk6GJQsqaUBKTNV-1">
          <mxGeometry x="260" y="80" width="120" height="421" as="geometry" />
        </mxCell>
        <mxCell id="Dr4ZRQpBwiBQjPsfkBms-11" value="" style="edgeStyle=orthogonalEdgeStyle;rounded=0;orthogonalLoop=1;jettySize=auto;html=1;" edge="1" parent="WIyWlLk6GJQsqaUBKTNV-1" source="Dr4ZRQpBwiBQjPsfkBms-8" target="Dr4ZRQpBwiBQjPsfkBms-10">
          <mxGeometry relative="1" as="geometry" />
        </mxCell>
        <mxCell id="Dr4ZRQpBwiBQjPsfkBms-8" value="&lt;div&gt;百信PLUS交易策略集合&lt;/div&gt;&lt;div&gt;申购申请策略&lt;/div&gt;" style="whiteSpace=wrap;html=1;rounded=0;" vertex="1" parent="WIyWlLk6GJQsqaUBKTNV-1">
          <mxGeometry x="460" y="129" width="136" height="324" as="geometry" />
        </mxCell>
        <mxCell id="Dr4ZRQpBwiBQjPsfkBms-13" value="" style="edgeStyle=orthogonalEdgeStyle;rounded=0;orthogonalLoop=1;jettySize=auto;html=1;" edge="1" parent="WIyWlLk6GJQsqaUBKTNV-1" source="Dr4ZRQpBwiBQjPsfkBms-10" target="Dr4ZRQpBwiBQjPsfkBms-12">
          <mxGeometry relative="1" as="geometry" />
        </mxCell>
        <mxCell id="Dr4ZRQpBwiBQjPsfkBms-10" value="百信PLUS交易策略集合" style="whiteSpace=wrap;html=1;rounded=0;" vertex="1" parent="WIyWlLk6GJQsqaUBKTNV-1">
          <mxGeometry x="676" y="260" width="136" height="60" as="geometry" />
        </mxCell>
        <mxCell id="Dr4ZRQpBwiBQjPsfkBms-12" value="获取申购策略" style="whiteSpace=wrap;html=1;rounded=0;" vertex="1" parent="WIyWlLk6GJQsqaUBKTNV-1">
          <mxGeometry x="892" y="260" width="136" height="60" as="geometry" />
        </mxCell>
        <mxCell id="Dr4ZRQpBwiBQjPsfkBms-14" value="&lt;div&gt;百信PLUS&lt;/div&gt;" style="rounded=0;whiteSpace=wrap;html=1;" vertex="1" parent="WIyWlLk6GJQsqaUBKTNV-1">
          <mxGeometry x="274" y="129" width="83" height="36" as="geometry" />
        </mxCell>
        <mxCell id="Dr4ZRQpBwiBQjPsfkBms-15" value="&lt;div&gt;&lt;div&gt;民生FOF&lt;/div&gt;&lt;/div&gt;" style="rounded=0;whiteSpace=wrap;html=1;" vertex="1" parent="WIyWlLk6GJQsqaUBKTNV-1">
          <mxGeometry x="274" y="184" width="83" height="36" as="geometry" />
        </mxCell>
        <mxCell id="Dr4ZRQpBwiBQjPsfkBms-16" value="&lt;div&gt;青银定开&lt;/div&gt;" style="rounded=0;whiteSpace=wrap;html=1;" vertex="1" parent="WIyWlLk6GJQsqaUBKTNV-1">
          <mxGeometry x="274" y="289" width="83" height="36" as="geometry" />
        </mxCell>
        <mxCell id="Dr4ZRQpBwiBQjPsfkBms-17" value="&lt;div&gt;&lt;div&gt;平安成长一号&lt;/div&gt;&lt;/div&gt;" style="rounded=0;whiteSpace=wrap;html=1;" vertex="1" parent="WIyWlLk6GJQsqaUBKTNV-1">
          <mxGeometry x="274" y="342" width="83" height="36" as="geometry" />
        </mxCell>
        <mxCell id="Dr4ZRQpBwiBQjPsfkBms-18" value="&lt;div&gt;&lt;div&gt;&lt;div&gt;光大日添利和月添利&lt;/div&gt;&lt;/div&gt;&lt;/div&gt;" style="rounded=0;whiteSpace=wrap;html=1;" vertex="1" parent="WIyWlLk6GJQsqaUBKTNV-1">
          <mxGeometry x="274" y="395" width="83" height="36" as="geometry" />
        </mxCell>
        <mxCell id="Dr4ZRQpBwiBQjPsfkBms-19" value="&lt;div&gt;&lt;div&gt;百信存款&lt;/div&gt;&lt;/div&gt;" style="rounded=0;whiteSpace=wrap;html=1;" vertex="1" parent="WIyWlLk6GJQsqaUBKTNV-1">
          <mxGeometry x="274" y="232" width="83" height="36" as="geometry" />
        </mxCell>
        <mxCell id="Dr4ZRQpBwiBQjPsfkBms-22" value="..." style="rounded=0;whiteSpace=wrap;html=1;" vertex="1" parent="WIyWlLk6GJQsqaUBKTNV-1">
          <mxGeometry x="274" y="458" width="83" height="36" as="geometry" />
        </mxCell>
      </root>
    </mxGraphModel>
  </diagram>
</mxfile>
